<svg width="36" height="36" viewBox="0 0 36 36" fill="none" xmlns="http://www.w3.org/2000/svg">
<path d="M32.7273 0H3.27273C1.46455 0 0 1.46455 0 3.27273V32.7273C0 34.5355 1.46455 36 3.27273 36H32.7273C34.5355 36 36 34.5355 36 32.7273V3.27273C36 1.46455 34.5338 0 32.7273 0ZM30.582 15.5029C30.3693 15.5225 30.1549 15.5356 29.9389 15.5356C27.4925 15.5356 25.3424 14.2789 24.0905 12.3758C24.0905 17.3651 24.0905 23.0433 24.0905 23.1382C24.0905 27.5318 20.5282 31.0925 16.1362 31.0925C11.7442 31.0909 8.18182 27.5285 8.18182 23.1365C8.18182 18.7429 11.7442 15.1822 16.1362 15.1822C16.3031 15.1822 16.4651 15.1969 16.6271 15.2067V19.1275C16.4635 19.1078 16.3047 19.0784 16.1362 19.0784C13.8944 19.0784 12.0764 20.8964 12.0764 23.1382C12.0764 25.38 13.8927 27.198 16.1362 27.198C18.3796 27.198 20.3596 25.4307 20.3596 23.1889C20.3596 23.0989 20.3989 4.91073 20.3989 4.91073H24.1445C24.4964 8.26036 27.2013 10.9047 30.582 11.1469V15.5029Z" fill="#5E503F"/>
</svg>
